<svg width="220" height="50" viewBox="0 0 220 50" fill="none" xmlns="http://www.w3.org/2000/svg">
<rect width="220" height="50" fill="#1E1E1E"/>
<path d="M25 43C34.9411 43 43 34.9411 43 25C43 15.0589 34.9411 7 25 7C15.0589 7 7 15.0589 7 25C7 34.9411 15.0589 43 25 43Z" stroke="#FFB703" stroke-width="3"/>
<path d="M25 35C30.5228 35 35 30.5228 35 25C35 19.4772 30.5228 15 25 15C19.4772 15 15 19.4772 15 25C15 30.5228 19.4772 35 25 35Z" stroke="#FFB703" stroke-width="2"/>
<path d="M45 12V38" stroke="#FFB703" stroke-width="3"/>
<path d="M41 12V20" stroke="#FFB703" stroke-width="2"/>
<path d="M49 12V20" stroke="#FFB703" stroke-width="2"/>
<path d="M79.532 16.344V20.18H71.524V24.324H77.516V28.048H71.524V36H66.736V16.344H79.532ZM89.1605 36.224C87.6298 36.224 86.2485 35.8973 85.0165 35.244C83.8032 34.5907 82.8418 33.6573 82.1325 32.444C81.4418 31.2307 81.0965 29.812 81.0965 28.188C81.0965 26.5827 81.4512 25.1733 82.1605 23.96C82.8698 22.728 83.8405 21.7853 85.0725 21.132C86.3045 20.4787 87.6858 20.152 89.2165 20.152C90.7472 20.152 92.1285 20.4787 93.3605 21.132C94.5925 21.7853 95.5632 22.728 96.2725 23.96C96.9818 25.1733 97.3365 26.5827 97.3365 28.188C97.3365 29.7933 96.9725 31.212 96.2445 32.444C95.5352 33.6573 94.5552 34.5907 93.3045 35.244C92.0725 35.8973 90.6912 36.224 89.1605 36.224ZM89.1605 32.08C90.0752 32.08 90.8498 31.744 91.4845 31.072C92.1378 30.4 92.4645 29.4387 92.4645 28.188C92.4645 26.9373 92.1472 25.976 91.5125 25.304C90.8965 24.632 90.1312 24.296 89.2165 24.296C88.2832 24.296 87.5085 24.632 86.8925 25.304C86.2765 25.9573 85.9685 26.9187 85.9685 28.188C85.9685 29.4387 86.2672 30.4 86.8645 31.072C87.4805 31.744 88.2458 32.08 89.1605 32.08ZM106.989 36.224C105.458 36.224 104.077 35.8973 102.845 35.244C101.631 34.5907 100.67 33.6573 99.9606 32.444C99.27 31.2307 98.9246 29.812 98.9246 28.188C98.9246 26.5827 99.2793 25.1733 99.9886 23.96C100.698 22.728 101.669 21.7853 102.901 21.132C104.133 20.4787 105.514 20.152 107.045 20.152C108.575 20.152 109.957 20.4787 111.189 21.132C112.421 21.7853 113.391 22.728 114.101 23.96C114.81 25.1733 115.165 26.5827 115.165 28.188C115.165 29.7933 114.801 31.212 114.073 32.444C113.363 33.6573 112.383 34.5907 111.133 35.244C109.901 35.8973 108.519 36.224 106.989 36.224ZM106.989 32.08C107.903 32.08 108.678 31.744 109.313 31.072C109.966 30.4 110.293 29.4387 110.293 28.188C110.293 26.9373 109.975 25.976 109.341 25.304C108.725 24.632 107.959 24.296 107.045 24.296C106.111 24.296 105.337 24.632 104.721 25.304C104.105 25.9573 103.797 26.9187 103.797 28.188C103.797 29.4387 104.095 30.4 104.693 31.072C105.309 31.744 106.074 32.08 106.989 32.08ZM116.753 28.16C116.753 26.5547 117.051 25.1453 117.649 23.932C118.265 22.7187 119.095 21.7853 120.141 21.132C121.186 20.4787 122.353 20.152 123.641 20.152C124.667 20.152 125.601 20.3667 126.441 20.796C127.299 21.2253 127.971 21.804 128.457 22.532V15.28H133.245V36H128.457V33.76C128.009 34.5067 127.365 35.104 126.525 35.552C125.703 36 124.742 36.224 123.641 36.224C122.353 36.224 121.186 35.8973 120.141 35.244C119.095 34.572 118.265 33.6293 117.649 32.416C117.051 31.184 116.753 29.7653 116.753 28.16ZM128.457 28.188C128.457 26.9933 128.121 26.0507 127.449 25.36C126.795 24.6693 125.993 24.324 125.041 24.324C124.089 24.324 123.277 24.6693 122.605 25.36C121.951 26.032 121.625 26.9653 121.625 28.16C121.625 29.3547 121.951 30.3067 122.605 31.016C123.277 31.7067 124.089 32.052 125.041 32.052C125.993 32.052 126.795 31.7067 127.449 31.016C128.121 30.3253 128.457 29.3827 128.457 28.188ZM151.689 22.672C151.689 23.8107 151.427 24.856 150.905 25.808C150.382 26.7413 149.579 27.4973 148.497 28.076C147.414 28.6547 146.07 28.944 144.465 28.944H141.497V36H136.709V16.344H144.465C146.033 16.344 147.358 16.6147 148.441 17.156C149.523 17.6973 150.335 18.444 150.877 19.396C151.418 20.348 151.689 21.44 151.689 22.672ZM144.101 25.136C145.015 25.136 145.697 24.9213 146.145 24.492C146.593 24.0627 146.817 23.456 146.817 22.672C146.817 21.888 146.593 21.2813 146.145 20.852C145.697 20.4227 145.015 20.208 144.101 20.208H141.497V25.136H144.101ZM158.969 15.28V36H154.181V15.28H158.969ZM161.487 28.16C161.487 26.5547 161.786 25.1453 162.383 23.932C162.999 22.7187 163.83 21.7853 164.875 21.132C165.92 20.4787 167.087 20.152 168.375 20.152C169.476 20.152 170.438 20.376 171.259 20.824C172.099 21.272 172.743 21.86 173.191 22.588V20.376H177.979V36H173.191V33.788C172.724 34.516 172.071 35.104 171.231 35.552C170.41 36 169.448 36.224 168.347 36.224C167.078 36.224 165.92 35.8973 164.875 35.244C163.83 34.572 162.999 33.6293 162.383 32.416C161.786 31.184 161.487 29.7653 161.487 28.16ZM173.191 28.188C173.191 26.9933 172.855 26.0507 172.183 25.36C171.53 24.6693 170.727 24.324 169.775 24.324C168.823 24.324 168.011 24.6693 167.339 25.36C166.686 26.032 166.359 26.9653 166.359 28.16C166.359 29.3547 166.686 30.3067 167.339 31.016C168.011 31.7067 168.823 32.052 169.775 32.052C170.727 32.052 171.53 31.7067 172.183 31.016C172.855 30.3253 173.191 29.3827 173.191 28.188ZM180.491 28.188C180.491 26.564 180.818 25.1453 181.471 23.932C182.143 22.7187 183.067 21.7853 184.243 21.132C185.438 20.4787 186.8 20.152 188.331 20.152C190.291 20.152 191.924 20.6653 193.231 21.692C194.556 22.7187 195.424 24.1653 195.835 26.032H190.739C190.31 24.8373 189.479 24.24 188.247 24.24C187.37 24.24 186.67 24.5853 186.147 25.276C185.624 25.948 185.363 26.9187 185.363 28.188C185.363 29.4573 185.624 30.4373 186.147 31.128C186.67 31.8 187.37 32.136 188.247 32.136C189.479 32.136 190.31 31.5387 190.739 30.344H195.835C195.424 32.1733 194.556 33.6107 193.231 34.656C191.906 35.7013 190.272 36.224 188.331 36.224C186.8 36.224 185.438 35.8973 184.243 35.244C183.067 34.5907 182.143 33.6573 181.471 32.444C180.818 31.2307 180.491 29.812 180.491 28.188ZM213.124 27.936C213.124 28.384 213.096 28.8507 213.04 29.336H202.204C202.279 30.3067 202.587 31.0533 203.128 31.576C203.688 32.08 204.369 32.332 205.172 32.332C206.367 32.332 207.197 31.828 207.664 30.82H212.76C212.499 31.8467 212.023 32.7707 211.332 33.592C210.66 34.4133 209.811 35.0573 208.784 35.524C207.757 35.9907 206.609 36.224 205.34 36.224C203.809 36.224 202.447 35.8973 201.252 35.244C200.057 34.5907 199.124 33.6573 198.452 32.444C197.78 31.2307 197.444 29.812 197.444 28.188C197.444 26.564 197.771 25.1453 198.424 23.932C199.096 22.7187 200.029 21.7853 201.224 21.132C202.419 20.4787 203.791 20.152 205.34 20.152C206.852 20.152 208.196 20.4693 209.372 21.104C210.548 21.7387 211.463 22.644 212.116 23.82C212.788 24.996 213.124 26.368 213.124 27.936ZM208.224 26.676C208.224 25.8547 207.944 25.2013 207.384 24.716C206.824 24.2307 206.124 23.988 205.284 23.988C204.481 23.988 203.8 24.2213 203.24 24.688C202.699 25.1547 202.363 25.8173 202.232 26.676H208.224Z" fill="#FFB703"/>
</svg>
